<?xml version="1.0" encoding="utf-8"?>
<!-- Generator: Adobe Illustrator 18.1.0, SVG Export Plug-In . SVG Version: 6.00 Build 0)  -->
<svg version="1.1" id="Layer_1" xmlns="http://www.w3.org/2000/svg" xmlns:xlink="http://www.w3.org/1999/xlink" x="0px" y="0px"
	 viewBox="1505.1 1364.9 612 408.1" enable-background="new 1505.1 1364.9 612 408.1" xml:space="preserve">
<path fill="#4FB395" d="M1753,1674.6c-21.9,36.5-7.4,65.5,21.9,83.9c29.3,18.4,62,14.5,83.9-21.9c21.9-36.5,156.6-364.4,142-371.5
	C1989.9,1357.7,1774.9,1638.2,1753,1674.6z M1811.4,1441.6c14.5,0,25.5,0,40,3.6c14.5-18.1,29.1-36.5,43.6-54.6
	c-25.5-7.4-54.6-11-83.9-11c-171.1,0-306,145.6-306,331.5c0,11,0,21.9,0,32.9c0,18.1,18.1,29.1,32.9,29.1
	c18.1,0,29.1-18.1,29.1-32.9c0-11,0-18.1,0-29.1C1563.5,1561.7,1672.9,1441.6,1811.4,1441.6z M2029.9,1481.6
	c-7.4,21.9-18.1,47.4-25.5,65.5c32.9,43.6,51,102,51,164c0,11,0,18.1,0,29.1c0,18.1,11,32.9,29.1,32.9h3.6c14.5,0,29.1-11,29.1-29.1
	c0-11,0-21.9,0-32.9C2117.4,1620.1,2084.5,1539.7,2029.9,1481.6z"/>
</svg>
