<?xml version="1.0" encoding="utf-8"?>
<!-- Generator: Adobe Illustrator 17.1.0, SVG Export Plug-In . SVG Version: 6.00 Build 0)  -->
<!DOCTYPE svg PUBLIC "-//W3C//DTD SVG 1.1//EN" "http://www.w3.org/Graphics/SVG/1.1/DTD/svg11.dtd">
<svg version="1.1" id="Layer_1" xmlns="http://www.w3.org/2000/svg" xmlns:xlink="http://www.w3.org/1999/xlink" x="0px" y="0px"
	 viewBox="0 0 225.046 60.031" enable-background="new 0 0 225.046 60.031" xml:space="preserve">
<g>
	<g>
		<g>
			<path fill="#FFFFFF" d="M221.354,18.816v0.476h-0.924v2.409h-0.573v-2.409h-0.914v-0.476H221.354z M224.474,21.701l-0.107-1.699
				c-0.009-0.223-0.009-0.496-0.024-0.806h-0.028c-0.072,0.259-0.172,0.596-0.242,0.86l-0.522,1.601h-0.593l-0.52-1.642
				c-0.054-0.213-0.141-0.561-0.201-0.819h-0.034c0,0.267-0.012,0.542-0.021,0.806l-0.105,1.699h-0.553l0.212-2.886h0.861
				l0.498,1.409c0.074,0.225,0.115,0.436,0.191,0.734h0.01c0.077-0.254,0.137-0.51,0.202-0.711l0.496-1.433h0.83l0.224,2.886
				H224.474z"/>
		</g>
		<g>
			<g>
				<path fill="#FFFFFF" d="M26.828,55.416c-2.84,2.84-6.779,4.598-11.116,4.598C7.033,60.014,0,52.981,0,44.296
					c0-8.679,7.033-15.712,15.712-15.715c4.337,0,8.276,1.765,11.116,4.603l-4.679,4.681c-1.653-1.647-3.92-2.666-6.438-2.666
					c-5.019,0.015-9.087,4.079-9.097,9.098c0.01,5.028,4.078,9.095,9.097,9.103c2.518,0,4.784-1.021,6.438-2.666L26.828,55.416z"/>
			</g>
			<path fill="#FFFFFF" d="M174.557,32.918c0,4.068-3.462,7.508-7.556,7.508c-4.055,0-7.514-3.445-7.555-7.508V18.816h-6.65v14.102
				c0,6.652,4.599,12.35,10.933,13.823v13.007h6.645V46.724c6.219-1.525,10.78-7.189,10.829-13.757V18.816h-6.646V32.918z"/>
			<path fill="#FFFFFF" d="M215.231,47.857l-1.239,1.283c-2.58,2.664-6.126,4.135-9.991,4.135c-7.705,0-13.971-6.242-13.971-13.922
				c0-7.73,6.266-14.021,13.971-14.021c3.696,0,7.386,1.547,9.888,4.139l1.269,1.314l4.723-5.034l-1.221-1.191
				c-3.984-3.877-9.188-6.012-14.658-6.012c-11.422,0-20.709,9.336-20.709,20.807c0,5.49,2.139,10.682,6.048,14.646
				c3.983,3.876,9.192,6.015,14.661,6.015c5.49,0,10.734-2.154,14.755-6.066l1.252-1.215L215.231,47.857z"/>
			<path fill="#FFFFFF" d="M215.231,47.857l-1.239,1.283c-2.58,2.664-6.126,4.135-9.991,4.135c-7.705,0-13.971-6.242-13.971-13.922
				c0-7.73,6.266-14.021,13.971-14.021c3.696,0,7.386,1.547,9.888,4.139l1.269,1.314l4.723-5.034l-1.221-1.191
				c-3.984-3.877-9.188-6.012-14.658-6.012c-11.422,0-20.709,9.336-20.709,20.807c0,5.49,2.139,10.682,6.048,14.646
				c3.983,3.876,9.192,6.015,14.661,6.015c5.49,0,10.734-2.154,14.755-6.066l1.252-1.215L215.231,47.857z"/>
			<path fill="#FFFFFF" d="M106.552,53.156c-3.543-0.08-6.374-2.156-6.379-6.584V18.807h-6.587v27.766
				c0,8.109,5.829,13.118,13.061,13.18c0.017,0,1.824,0,4.15,0v-6.596C108.431,53.156,106.577,53.156,106.552,53.156z"/>
			<g>
				<g>
					<path fill="#FFFFFF" d="M41.974,28.742c-8.639,0-15.642,6.998-15.642,15.631c0,1.502,0.225,2.946,0.621,4.322
						c0.576,2.016,1.542,3.859,2.818,5.451c2.866,3.573,7.263,5.867,12.202,5.867c8.642,0,15.641-6.997,15.645-15.641
						C57.614,35.74,50.615,28.742,41.974,28.742z M41.974,53.434c-4.998-0.012-9.049-4.059-9.053-9.061
						c0.004-4.996,4.055-9.039,9.053-9.053c5.004,0.014,9.05,4.057,9.05,9.053C51.023,49.375,46.978,53.422,41.974,53.434z"/>
				</g>
			</g>
			<path fill="#FFFFFF" d="M75.307,28.742c-8.638,0-15.64,6.998-15.64,15.631c0,8.644,7.002,15.641,15.64,15.641
				c8.643,0,15.641-6.997,15.645-15.641C90.947,35.74,83.949,28.742,75.307,28.742z M75.307,53.434
				c-4.995-0.012-9.045-4.059-9.05-9.061c0.005-4.996,4.055-9.039,9.05-9.053c5.005,0.014,9.052,4.057,9.052,9.053
				C84.358,49.375,80.312,53.422,75.307,53.434z"/>
			<path fill="#FFFFFF" d="M151.546,15.722V7.99h-2.175V0h-2.14v7.99l-3.912-0.004V0h-2.135v7.984h-2.164l0.002,7.729
				c-0.002,2.678,1.205,4.964,2.913,5.887v30.994c0,0.377-0.185,0.668-0.618,0.668c-0.231,0-0.52-0.174-0.697-0.525l-13.166-29.583
				v0.003l-0.348-0.657c-1.306-2.478-3.781-3.956-6.577-3.956c-4.132,0-7.358,3.27-7.358,7.443v33.762h6.74V25.986
				c0-0.375,0.188-0.668,0.62-0.668c0.236,0,0.521,0.174,0.698,0.525l13.475,30.242c1.305,2.48,3.78,3.945,6.613,3.945
				c4.135,0,7.331-3.264,7.331-7.438V21.591C150.344,20.66,151.546,18.387,151.546,15.722z"/>
		</g>
	</g>
</g>
</svg>
